<svg xmlns="http://www.w3.org/2000/svg" xmlns:xlink="http://www.w3.org/1999/xlink" version="1.1" x="0px" y="0px" viewBox="0 0 512 640" enable-background="new 0 0 512 512" xml:space="preserve"><g><g><g><path d="M500.985,511.984H13.015c-2.211,0-4-1.789-4-4v-55.996c0-34.334,17.784-47.481,50.598-59.746     c34.549-12.906,62.024-24.835,79.453-34.498c1.945-1.086,4.367-0.383,5.437,1.547c1.074,1.938,0.375,4.375-1.555,5.437     c-17.772,9.867-45.622,21.968-80.538,35.014c-30.756,11.483-45.396,22.233-45.396,52.247v51.997h479.971v-51.997     c0-30.014-14.64-40.764-45.396-52.247c-35.514-13.296-62.613-25.068-80.542-35.006c-1.93-1.069-2.633-3.507-1.562-5.437     c1.07-1.938,3.508-2.633,5.438-1.562c17.585,9.749,44.325,21.365,79.472,34.506c32.811,12.265,50.591,25.412,50.591,59.746     v55.996C504.985,510.195,503.196,511.984,500.985,511.984z"/></g></g><g><g><path d="M257,367.993c-55.547,0-143.991-78.714-143.991-171.989c0-2.211,1.789-4,4-4c2.21,0,4,1.789,4,4     c0,88.939,83.53,163.99,135.992,163.99c52.466,0,135.992-75.051,135.992-163.99c0-2.211,1.789-4,4-4c2.21,0,3.999,1.789,3.999,4     C400.991,289.279,312.543,367.993,257,367.993z"/></g></g><g><g><path d="M257.238,399.991c-2.207,0-4.039-1.789-4.039-3.999c0-2.211,1.75-4,3.961-4h0.078c2.211,0,4,1.789,4,4     C261.238,398.202,259.449,399.991,257.238,399.991z"/></g></g><g><g><path d="M257.238,431.989c-2.207,0-4.039-1.789-4.039-3.999c0-2.211,1.75-4,3.961-4h0.078c2.211,0,4,1.789,4,4     C261.238,430.2,259.449,431.989,257.238,431.989z"/></g></g><g><g><path d="M257.238,463.987c-2.207,0-4.039-1.789-4.039-3.999c0-2.211,1.75-4,3.961-4h0.078c2.211,0,4,1.789,4,4     C261.238,462.198,259.449,463.987,257.238,463.987z"/></g></g><g><g><path d="M257.238,495.985c-2.207,0-4.039-1.789-4.039-3.999c0-2.211,1.75-4,3.961-4h0.078c2.211,0,4,1.789,4,4     C261.238,494.196,259.449,495.985,257.238,495.985z"/></g></g><g><g><g><path d="M356.994,351.994c-2.211,0-4-1.789-4-4v-15.999c0-2.21,1.789-3.999,4-3.999s4,1.789,4,3.999v15.999      C360.994,350.205,359.205,351.994,356.994,351.994z"/></g></g><g><g><path d="M316.996,407.991c-0.812,0-1.625-0.242-2.328-0.75c-1.797-1.281-2.211-3.781-0.922-5.578l39.998-55.997      c1.281-1.781,3.781-2.202,5.578-0.922c1.797,1.281,2.211,3.781,0.922,5.578l-39.998,55.997      C319.465,407.413,318.246,407.991,316.996,407.991z"/></g></g><g><g><path d="M316.996,407.991c-0.609,0-1.219-0.141-1.789-0.422l-47.996-23.999c-1.977-0.984-2.777-3.391-1.789-5.367      c0.992-1.977,3.39-2.772,5.366-1.789l47.997,23.999c1.977,0.984,2.773,3.391,1.789,5.367      C319.871,407.179,318.465,407.991,316.996,407.991z"/></g></g></g><g><g><g><path d="M157.006,351.994c-2.21,0-4-1.789-4-4v-15.999c0-2.21,1.789-3.999,4-3.999c2.211,0,4,1.789,4,3.999v15.999      C161.006,350.205,159.217,351.994,157.006,351.994z"/></g></g><g><g><path d="M197.008,407.991c-1.25,0-2.477-0.578-3.258-1.672l-39.998-55.997c-1.285-1.797-0.867-4.297,0.93-5.578      c1.8-1.288,4.292-0.875,5.578,0.922l39.998,55.997c1.285,1.797,0.867,4.297-0.929,5.578      C198.625,407.749,197.812,407.991,197.008,407.991z"/></g></g><g><g><path d="M197.008,407.991c-1.469,0-2.879-0.812-3.582-2.211c-0.988-1.977-0.188-4.383,1.789-5.367l47.997-23.999      c1.977-0.983,4.379-0.188,5.367,1.789c0.988,1.977,0.188,4.383-1.789,5.367l-47.997,23.999      C198.219,407.851,197.609,407.991,197.008,407.991z"/></g></g></g><g><g><path d="M117.009,184.004c-0.285,0-0.574-0.031-0.863-0.094c-1.695-0.375-2.957-1.8-3.121-3.535     c-5.02-53.595,6.464-96.17,34.131-126.547C187.66,9.351,254.094,0.016,302.7,0.016c28.39,0,49.474,3.277,51.786,3.652     c1.766,0.285,3.133,1.71,3.336,3.492c0.203,1.777-0.797,3.476-2.453,4.156c-28.607,11.773-23.967,40.248-21.577,49.528     c0.805-0.035,1.734-0.062,2.781-0.062c11.366,0,32.803,2.77,48.677,21.312c17.429,20.358,22.71,53.508,15.694,98.529     c-0.258,1.656-1.523,2.976-3.172,3.304c-1.655,0.352-3.312-0.41-4.194-1.835l-33.381-54.583     c-12.656,4.902-60.043,22.022-104.338,22.022c-44.161,0-90.967-17.026-103.658-21.983l-31.736,54.47     C119.739,183.266,118.411,184.004,117.009,184.004z M361.846,118.547c1.352,0,2.664,0.691,3.413,1.914l29.28,47.868     c4.226-36.943-0.93-64.172-15.359-81.034c-13.796-16.108-32.615-18.514-42.606-18.514c-3.102,0-5.03,0.246-5.155,0.266     c-1.875,0.238-3.703-0.855-4.328-2.652c-0.141-0.406-12.344-36.76,14.218-56.36c-9.069-0.964-22.64-2.019-38.607-2.019     c-46.993,0-111.095,8.882-149.631,51.2c-23.862,26.198-34.927,62.333-32.967,107.533l26.924-46.212     c1.016-1.738,3.145-2.449,5-1.68c0.543,0.227,54.883,22.674,103.833,22.674c48.966,0,103.908-22.452,104.463-22.678     C360.814,118.645,361.338,118.547,361.846,118.547z"/></g></g><g><g><path d="M268.999,511.984c-2.21,0-3.999-1.789-3.999-4V395.992c0-2.211,1.789-4,3.999-4c2.211,0,4,1.789,4,4v111.992     C272.999,510.195,271.21,511.984,268.999,511.984z"/></g></g><g><g><path d="M245.001,511.984c-2.211,0-4-1.789-4-4V395.992c0-2.211,1.789-4,4-4s4,1.789,4,4v111.992     C249,510.195,247.212,511.984,245.001,511.984z"/></g></g><g><g><path d="M412.99,479.986h-79.995c-2.21,0-3.999-1.789-3.999-4s1.789-3.999,3.999-3.999h79.995c2.211,0,4,1.788,4,3.999     S415.201,479.986,412.99,479.986z"/></g></g><g><g><path d="M332.995,495.985c-2.21,0-3.999-1.789-3.999-3.999v-16c0-2.211,1.789-3.999,3.999-3.999c2.211,0,4,1.788,4,3.999v16     C336.995,494.196,335.206,495.985,332.995,495.985z"/></g></g><g><g><path d="M412.99,495.985c-2.211,0-3.999-1.789-3.999-3.999v-16c0-2.211,1.788-3.999,3.999-3.999s4,1.788,4,3.999v16     C416.99,494.196,415.201,495.985,412.99,495.985z"/></g></g><g><g><path d="M340.995,471.987c-1.023,0-2.047-0.391-2.828-1.172c-1.562-1.562-1.562-4.094,0-5.656l23.999-23.999     c1.562-1.562,4.093-1.562,5.655,0c1.562,1.562,1.562,4.094,0,5.656l-23.998,23.999     C343.042,471.597,342.019,471.987,340.995,471.987z"/></g></g><g><g><path d="M388.992,471.987c-1.023,0-2.047-0.391-2.828-1.172l-23.998-23.999c-1.562-1.562-1.562-4.094,0-5.656     c1.562-1.562,4.093-1.562,5.655,0l23.999,23.999c1.562,1.562,1.562,4.094,0,5.656     C391.039,471.597,390.016,471.987,388.992,471.987z"/></g></g><g><g><path d="M404.991,471.987c-1.023,0-2.047-0.391-2.828-1.172l-23.999-23.999c-1.562-1.562-1.562-4.094,0-5.656     c1.562-1.562,4.094-1.562,5.656,0l23.999,23.999c1.562,1.562,1.562,4.094,0,5.656     C407.038,471.597,406.015,471.987,404.991,471.987z"/></g></g></g><text x="0" y="527" fill="#000000" font-size="5px" font-weight="bold" font-family="'Helvetica Neue', Helvetica, Arial-Unicode, Arial, Sans-serif">Created by lastspark</text><text x="0" y="532" fill="#000000" font-size="5px" font-weight="bold" font-family="'Helvetica Neue', Helvetica, Arial-Unicode, Arial, Sans-serif">from the Noun Project</text></svg>