<svg xmlns="http://www.w3.org/2000/svg" xmlns:xlink="http://www.w3.org/1999/xlink" version="1.1" x="0px" y="0px" viewBox="0 0 512 640" enable-background="new 0 0 512 512" xml:space="preserve"><g><g><g><path d="M256,367.99c-42.271,0-99.061-47.685-126.594-106.278c-0.938-2-0.078-4.383,1.922-5.32     c1.984-0.953,4.375-0.078,5.32,1.914C165.225,319.134,221.432,359.991,256,359.991c34.342,0,83.151-37.779,111.126-86.011     c1.109-1.922,3.562-2.562,5.469-1.453s2.562,3.562,1.453,5.469C344.291,329.306,293.537,367.99,256,367.99z"/></g></g><g><g><path d="M475.986,511.981H36.014c-2.211,0-4-1.797-4-4v-39.997c0-34.326,17.784-47.481,50.595-59.747     c5.144-1.921,11.331-3.89,18.065-6.03c31.791-10.093,75.331-23.937,75.331-54.216c0-2.219,1.789-4,4-4s4,1.781,4,4     c0,36.139-46.763,50.997-80.909,61.84c-6.593,2.094-12.652,4.016-17.686,5.906c-30.756,11.484-45.396,22.249-45.396,52.247     v35.998h431.974v-35.998c0-29.998-14.64-40.763-45.396-52.247c-5.031-1.891-11.094-3.812-17.695-5.906     c-34.138-10.843-80.9-25.717-80.9-61.84c0-2.219,1.789-4,3.999-4c2.211,0,4,1.781,4,4c0,30.279,43.536,44.107,75.323,54.216     c6.742,2.141,12.93,4.109,18.069,6.03c32.818,12.266,50.599,25.421,50.599,59.747v39.997     C479.986,510.185,478.197,511.981,475.986,511.981z"/></g></g><g><g><path d="M180.005,351.991c-2.211,0-4-1.797-4-4v-23.014c0-2.203,1.789-4,4-4s4,1.797,4,4v23.014     C184.004,350.194,182.216,351.991,180.005,351.991z"/></g></g><g><g><path d="M331.995,351.991c-2.21,0-3.999-1.797-3.999-4v-23.014c0-2.219,1.789-4,3.999-4c2.211,0,4,1.781,4,4v23.014     C335.995,350.194,334.206,351.991,331.995,351.991z"/></g></g><g><g><path d="M256,463.984c-109.454,0-134.691-60.543-135.71-63.105c-0.812-2.062,0.191-4.375,2.238-5.187     c2.043-0.828,4.371,0.172,5.195,2.218c0.234,0.578,24.62,58.075,128.277,58.075c103.658,0,128.055-57.497,128.289-58.075     c0.82-2.046,3.156-3.046,5.195-2.218c2.047,0.812,3.047,3.124,2.234,5.187C390.695,403.441,365.454,463.984,256,463.984z"/></g></g><g><g><path d="M256,443.985c-93.443,0-116.161-48.355-117.083-50.418c-0.902-2.016,0-4.375,2.02-5.281     c2.02-0.922,4.379,0.016,5.285,2.016c0.832,1.875,21.459,45.685,109.778,45.685c88.369,0,109.095-44.138,109.938-46.013     c0.898-2.016,3.266-2.938,5.281-2.016c2.016,0.891,2.922,3.266,2.016,5.281C372.313,395.302,349.494,443.985,256,443.985z"/></g></g><g><g><path d="M387.992,327.993c-0.273,0-0.547-0.031-0.82-0.094c-1.945-0.406-3.297-2.172-3.172-4.156     c0.07-1.172,6.477-117.458-59.746-171.728c-35.889-29.405-86.772-35.63-151.222-18.506c-2.129,0.593-4.328-0.703-4.894-2.844     c-0.566-2.133,0.703-4.32,2.839-4.891c67.102-17.812,120.388-11.077,158.37,20.077c51.098,41.896,61.074,116.141,62.66,154.345     c44.935-138.268,20.67-238.809-67.965-277.635c-69.352-30.373-152.808-9.5-172.478,28.905c-1,1.968-3.402,2.75-5.382,1.742     c-1.965-1.008-2.742-3.422-1.734-5.383c23.788-46.45,114.325-62.574,182.806-32.592c46.239,20.257,145.085,91.018,64.496,310.133     C391.156,326.962,389.641,327.993,387.992,327.993z"/></g></g><g><g><path d="M116.005,303.994c-1.617,0-3.109-0.984-3.719-2.547C75.585,208.036,69.777,137.212,95.021,90.949     c19.64-35.982,50.88-42.599,52.2-42.864c2.18-0.438,4.261,0.977,4.699,3.125c0.438,2.164-0.961,4.273-3.121,4.718     c-0.289,0.055-29.112,6.32-46.876,39.076c-15.507,28.592-25.506,83.526,10.738,184.71c2.273-40.36,12.417-128.315,57.528-151.275     c1.96-1.016,4.378-0.227,5.382,1.75c1,1.969,0.219,4.375-1.75,5.375c-53.489,27.225-53.817,163.057-53.813,164.415     c0.004,1.922-1.363,3.578-3.25,3.938C116.505,303.963,116.255,303.994,116.005,303.994z"/></g></g><g><g><path d="M172.005,136.001c-1.722,0-3.312-1.117-3.832-2.851l-23.999-79.995c-0.633-2.117,0.566-4.344,2.684-4.977     c2.121-0.656,4.343,0.562,4.98,2.68l23.999,79.995c0.633,2.117-0.566,4.343-2.684,4.976     C172.771,135.946,172.384,136.001,172.005,136.001z"/></g></g></g><text x="0" y="527" fill="#000000" font-size="5px" font-weight="bold" font-family="'Helvetica Neue', Helvetica, Arial-Unicode, Arial, Sans-serif">Created by lastspark</text><text x="0" y="532" fill="#000000" font-size="5px" font-weight="bold" font-family="'Helvetica Neue', Helvetica, Arial-Unicode, Arial, Sans-serif">from the Noun Project</text></svg>